<svg xmlns="http://www.w3.org/2000/svg" width="16.26" height="16.26" viewBox="0 0 16.26 16.26">
  <title>globe-icon</title>
  <g>
    <polygon points="11.85 3.62 11.87 3.74 11.69 3.78 11.66 4.03 11.88 4.03 12.17 4 12.32 3.83 12.16 3.77 12.07 3.67 11.94 3.46 11.88 3.16 11.63 3.21 11.57 3.31 11.57 3.43 11.68 3.51 11.85 3.62" style="fill: #fff"/>
    <polygon points="11.64 3.72 11.66 3.56 11.51 3.49 11.31 3.54 11.16 3.78 11.16 3.93 11.34 3.93 11.64 3.72" style="fill: #fff"/>
    <path d="M975.1,876.76l0,0.11h-0.21V877h0.05V877H975l0.08-.05,0-.1h0.11l0-.09-0.1,0H975.1Z" transform="translate(-967.58 -872.36)" style="fill: #fff"/>
    <polygon points="6.96 4.6 6.95 4.71 7.11 4.7 7.13 4.59 7.03 4.51 6.96 4.6" style="fill: #fff"/>
    <path d="M983.85,880.41c0-.24,0-0.48,0-0.71a8.1,8.1,0,0,0-.54-2.21l-0.06-.16a8.16,8.16,0,0,0-1.53-2.36l-0.13-.13-0.37-.36a8.12,8.12,0,0,0-11,0,8.28,8.28,0,0,0-.93,1,8.13,8.13,0,1,0,14.34,6.87c0-.16.07-0.32,0.1-0.48a8.16,8.16,0,0,0,.13-1.42S983.85,880.44,983.85,880.41Zm-1.53-3.25,0-.05,0.17,0.37h-0.08l-0.15,0v-0.33Zm-1.18-1.42v-0.36l0.37,0.42-0.15.22h-0.51l0-.11Zm-9.81-.9h0.16v-0.06h0.27v0.12l-0.08.1h-0.37v-0.15Zm0.26,0.36,0.18,0a0.69,0.69,0,0,1,0,.16l-0.37,0-0.07-.08Zm11.24,3.23h-0.59l-0.36-.27-0.38,0v0.23h-0.12l-0.13-.09-0.66-.17v-0.43l-0.84.07-0.26.14h-0.33l-0.16,0-0.4.23v0.42l-0.82.59,0.07,0.26H978l0,0.24-0.12,0v0.63l0.71,0.81h0.31l0-.05h0.56l0.16-.15h0.32l0.17,0.17,0.47,0.05-0.06.63,0.52,0.92-0.28.53,0,0.25,0.22,0.22v0.6l0.28,0.38v0.5h0.25a7.46,7.46,0,0,1-12.66-7.62c0.08-.19.17-0.38,0.27-0.56s0.19-.35.3-0.51v0.14l-0.31.38c-0.1.18-.19,0.37-0.27,0.56V878l0.31,0.15v0.59l0.3,0.51,0.24,0,0-.17-0.29-.44-0.06-.43h0.17l0.07,0.44,0.41,0.6-0.11.19,0.26,0.4,0.65,0.16v-0.1l0.26,0,0,0.18,0.21,0,0.32,0.09,0.45,0.51,0.57,0,0.06,0.47-0.39.27,0,0.42-0.06.25,0.57,0.71,0,0.24,0.23,0.06s0.46,0.33.46,0.33v1.28l0.16,0-0.11.59,0.26,0.35,0,0.58,0.34,0.61,0.44,0.39H975l0-.14-0.32-.28,0-.14,0.06-.17v-0.17h-0.22l-0.11-.14,0.18-.18,0-.13-0.2-.06v-0.12l0.29,0,0.44-.21,0.15-.27,0.47-.6-0.11-.47,0.14-.25h0.43l0.29-.23,0.09-.9,0.32-.41,0.06-.26-0.29-.09-0.19-.32h-0.66l-0.52-.2,0-.37-0.17-.3h-0.47l-0.27-.43-0.24-.12v0.13l-0.44,0-0.16-.22-0.46-.09-0.38.44-0.59-.1,0-.67-0.43-.08,0.17-.33-0.05-.19-0.57.38-0.36,0-0.13-.28,0.08-.29,0.2-.37,0.46-.23h0.88v0.27l0.32,0.15,0-.46,0.23-.23,0.46-.3,0-.21,0.46-.48,0.49-.27,0,0,0.33-.31,0.12,0,0.06,0.07,0.13-.14h0l-0.14,0-0.14,0v-0.13l0.07-.06h0.16l0.08,0,0.07,0.13h0.1l0.23,0,0-.11,0.13,0v0.12l-0.12.08,0,0.13,0.41,0.13h0.1v-0.18l-0.33-.15,0-.09,0.27-.09V876l-0.29-.17,0-.44-0.39.19h-0.14l0-.33-0.53-.13-0.22.17v0.51l-0.4.12-0.16.33-0.17,0v-0.42l-0.37-.05-0.19-.12-0.08-.27,0.66-.39L974,875l0,0.22h0.18v-0.11l0.19,0v0l-0.08,0,0-.12,0.23,0,0.14-.15h0l0,0,0.49-.06,0.22,0.18-0.57.3,0.72,0.17,0.09-.24H976l0.11-.21-0.22-.06v-0.27l-0.7-.31-0.48.06-0.27.14,0,0.35-0.29,0,0-.19,0.27-.25-0.5,0-0.14,0-0.06.17,0.19,0,0,0.19-0.32,0,0,0.12H973a1.17,1.17,0,0,0,0-.26h0.36l0.27-.27-0.15-.07-0.2.19-0.33,0-0.2-.27h-0.42l-0.44.33h0.4l0,0.12-0.1.1h0.45l0.07,0.16-0.5,0,0-.12-0.32-.07-0.17-.09h-0.38a7.45,7.45,0,0,1,9.31.44l-0.09.16-0.34.14-0.15.16,0,0.18,0.18,0,0.11,0.27,0.31-.12,0.05,0.36h-0.09l-0.25,0-0.28,0-0.27.38-0.39.06-0.06.33,0.16,0,0,0.21-0.38-.08-0.35.08-0.07.19,0.06,0.41,0.21,0.1h0.35l0.23,0,0.07-.19,0.37-.47,0.24,0,0.24-.21,0,0.17,0.58,0.39-0.07.09h-0.26l0.1,0.14,0.16,0,0.19-.08v-0.23l0.08,0-0.07-.07-0.39-.22-0.1-.29h0.32l0.1,0.1,0.28,0.24v0.29l0.29,0.31,0.11-.42,0.2-.11,0,0.34,0.2,0.21h0.39q0.11,0.29.2,0.59ZM972,876.05l0.19-.09,0.18,0-0.06.24-0.19.06Zm1,0.56v0.15h-0.45l-0.17,0,0-.11,0.21-.09H973v0.09h0.07Zm0.2,0.21V877l-0.11.07-0.14,0v-0.25h0.25Zm-0.13-.06v-0.18l0.15,0.14Zm0.07,0.36v0.15l-0.11.11h-0.24l0-.16H973l0-.06Zm-0.59-.3h0.25l-0.32.44-0.13-.07,0-.19Zm1,0.25v0.15h-0.24l-0.07-.09V877h0Zm-0.22-.2,0.07-.07,0.11,0.07-0.09.08ZM983,878.8l0,0,0,0.13Z" transform="translate(-967.58 -872.36)" style="fill: #fff"/>
  </g>
</svg>
